<svg xmlns="http://www.w3.org/2000/svg" viewBox="0 0 640 280" width="640" height="280">
  <!-- Background -->
  <rect x="0" y="0" width="640" height="280" fill="#0a0a0a"/>

  <!-- ============ STAR FIELD ============ -->
  <rect x="40" y="24" width="3" height="3" fill="#4a8fd4" opacity="0.4"/>
  <rect x="120" y="48" width="3" height="3" fill="#4a8fd4" opacity="0.3"/>
  <rect x="200" y="16" width="3" height="3" fill="#4a8fd4" opacity="0.5"/>
  <rect x="300" y="40" width="3" height="3" fill="#4a8fd4" opacity="0.3"/>
  <rect x="380" y="56" width="3" height="3" fill="#4a8fd4" opacity="0.4"/>
  <rect x="450" y="24" width="3" height="3" fill="#4a8fd4" opacity="0.5"/>
  <rect x="520" y="48" width="3" height="3" fill="#4a8fd4" opacity="0.3"/>
  <rect x="580" y="32" width="3" height="3" fill="#4a8fd4" opacity="0.4"/>
  <rect x="80" y="72" width="3" height="3" fill="#4a8fd4" opacity="0.2"/>
  <rect x="350" y="80" width="3" height="3" fill="#4a8fd4" opacity="0.3"/>
  <rect x="500" y="16" width="3" height="3" fill="#4a8fd4" opacity="0.4"/>

  <!-- ============ CITY SKYLINE ============ -->
  <!-- Ground -->
  <rect x="0" y="224" width="640" height="56" fill="#1a1a2e"/>
  <rect x="0" y="224" width="640" height="4" fill="#2b5c8f" opacity="0.3"/>

  <!-- Building 1 -->
  <rect x="24" y="136" width="48" height="88" fill="#1a1a2e"/>
  <rect x="24" y="136" width="48" height="4" fill="#2b5c8f" opacity="0.5"/>
  <rect x="32" y="148" width="8" height="8" fill="#2b5c8f" opacity="0.6"/>
  <rect x="48" y="148" width="8" height="8" fill="#2b5c8f" opacity="0.4"/>
  <rect x="32" y="164" width="8" height="8" fill="#2b5c8f" opacity="0.3"/>
  <rect x="48" y="164" width="8" height="8" fill="#2b5c8f" opacity="0.6"/>
  <rect x="32" y="180" width="8" height="8" fill="#2b5c8f" opacity="0.5"/>
  <rect x="48" y="196" width="8" height="8" fill="#2b5c8f" opacity="0.3"/>

  <!-- Building 2 -->
  <rect x="88" y="104" width="56" height="120" fill="#1a1a2e"/>
  <rect x="88" y="104" width="56" height="4" fill="#2b5c8f" opacity="0.4"/>
  <rect x="96" y="116" width="8" height="8" fill="#2b5c8f" opacity="0.5"/>
  <rect x="112" y="116" width="8" height="8" fill="#2b5c8f" opacity="0.3"/>
  <rect x="96" y="132" width="8" height="8" fill="#2b5c8f" opacity="0.4"/>
  <rect x="112" y="132" width="8" height="8" fill="#2b5c8f" opacity="0.6"/>
  <rect x="96" y="148" width="8" height="8" fill="#4a8fd4" opacity="0.5"/>
  <rect x="112" y="148" width="8" height="8" fill="#2b5c8f" opacity="0.4"/>
  <rect x="96" y="164" width="8" height="8" fill="#2b5c8f" opacity="0.3"/>
  <rect x="112" y="180" width="8" height="8" fill="#2b5c8f" opacity="0.5"/>
  <rect x="112" y="96" width="4" height="8" fill="#2b5c8f" opacity="0.6"/>
  <rect x="113" y="88" width="2" height="8" fill="#4a8fd4" opacity="0.4"/>

  <!-- Building 3 - tallest center-left -->
  <rect x="160" y="72" width="72" height="152" fill="#1a1a2e"/>
  <rect x="160" y="72" width="72" height="4" fill="#2b5c8f" opacity="0.5"/>
  <rect x="168" y="84" width="8" height="8" fill="#2b5c8f" opacity="0.6"/>
  <rect x="184" y="84" width="8" height="8" fill="#4a8fd4" opacity="0.5"/>
  <rect x="200" y="84" width="8" height="8" fill="#2b5c8f" opacity="0.4"/>
  <rect x="216" y="84" width="8" height="8" fill="#2b5c8f" opacity="0.3"/>
  <rect x="168" y="100" width="8" height="8" fill="#2b5c8f" opacity="0.4"/>
  <rect x="184" y="100" width="8" height="8" fill="#2b5c8f" opacity="0.6"/>
  <rect x="200" y="100" width="8" height="8" fill="#2b5c8f" opacity="0.5"/>
  <rect x="168" y="116" width="8" height="8" fill="#4a8fd4" opacity="0.4"/>
  <rect x="200" y="116" width="8" height="8" fill="#2b5c8f" opacity="0.6"/>
  <rect x="216" y="116" width="8" height="8" fill="#2b5c8f" opacity="0.3"/>
  <rect x="168" y="132" width="8" height="8" fill="#2b5c8f" opacity="0.5"/>
  <rect x="184" y="132" width="8" height="8" fill="#2b5c8f" opacity="0.3"/>
  <rect x="200" y="132" width="8" height="8" fill="#4a8fd4" opacity="0.4"/>
  <rect x="216" y="132" width="8" height="8" fill="#2b5c8f" opacity="0.6"/>
  <rect x="168" y="148" width="8" height="8" fill="#2b5c8f" opacity="0.3"/>
  <rect x="184" y="148" width="8" height="8" fill="#2b5c8f" opacity="0.5"/>
  <rect x="200" y="148" width="8" height="8" fill="#2b5c8f" opacity="0.4"/>
  <rect x="184" y="164" width="8" height="8" fill="#4a8fd4" opacity="0.5"/>
  <rect x="216" y="164" width="8" height="8" fill="#2b5c8f" opacity="0.3"/>
  <rect x="168" y="180" width="8" height="8" fill="#2b5c8f" opacity="0.4"/>
  <rect x="200" y="180" width="8" height="8" fill="#2b5c8f" opacity="0.5"/>
  <rect x="160" y="68" width="72" height="4" fill="#4a8fd4" opacity="0.4"/>

  <!-- Building 4 -->
  <rect x="248" y="152" width="40" height="72" fill="#1a1a2e"/>
  <rect x="248" y="152" width="40" height="4" fill="#2b5c8f" opacity="0.4"/>
  <rect x="256" y="164" width="8" height="8" fill="#2b5c8f" opacity="0.5"/>
  <rect x="272" y="164" width="8" height="8" fill="#2b5c8f" opacity="0.3"/>
  <rect x="256" y="180" width="8" height="8" fill="#4a8fd4" opacity="0.4"/>
  <rect x="272" y="196" width="8" height="8" fill="#2b5c8f" opacity="0.5"/>

  <!-- Building 5 - center tallest -->
  <rect x="304" y="56" width="80" height="168" fill="#1a1a2e"/>
  <rect x="304" y="56" width="80" height="4" fill="#2b5c8f" opacity="0.6"/>
  <rect x="328" y="44" width="32" height="12" fill="#1a1a2e"/>
  <rect x="328" y="44" width="32" height="4" fill="#4a8fd4" opacity="0.5"/>
  <rect x="342" y="28" width="4" height="16" fill="#2b5c8f" opacity="0.5"/>
  <rect x="340" y="20" width="8" height="8" fill="#4a8fd4" opacity="0.4"/>
  <rect x="312" y="68" width="8" height="8" fill="#4a8fd4" opacity="0.5"/>
  <rect x="328" y="68" width="8" height="8" fill="#2b5c8f" opacity="0.6"/>
  <rect x="344" y="68" width="8" height="8" fill="#2b5c8f" opacity="0.4"/>
  <rect x="360" y="68" width="8" height="8" fill="#2b5c8f" opacity="0.3"/>
  <rect x="312" y="84" width="8" height="8" fill="#2b5c8f" opacity="0.4"/>
  <rect x="328" y="84" width="8" height="8" fill="#2b5c8f" opacity="0.3"/>
  <rect x="344" y="84" width="8" height="8" fill="#4a8fd4" opacity="0.5"/>
  <rect x="360" y="84" width="8" height="8" fill="#2b5c8f" opacity="0.6"/>
  <rect x="312" y="100" width="8" height="8" fill="#2b5c8f" opacity="0.5"/>
  <rect x="328" y="100" width="8" height="8" fill="#4a8fd4" opacity="0.4"/>
  <rect x="344" y="100" width="8" height="8" fill="#2b5c8f" opacity="0.3"/>
  <rect x="360" y="100" width="8" height="8" fill="#2b5c8f" opacity="0.5"/>
  <rect x="312" y="116" width="8" height="8" fill="#2b5c8f" opacity="0.3"/>
  <rect x="328" y="116" width="8" height="8" fill="#2b5c8f" opacity="0.6"/>
  <rect x="344" y="116" width="8" height="8" fill="#2b5c8f" opacity="0.4"/>
  <rect x="360" y="116" width="8" height="8" fill="#4a8fd4" opacity="0.5"/>
  <rect x="312" y="132" width="8" height="8" fill="#4a8fd4" opacity="0.4"/>
  <rect x="344" y="132" width="8" height="8" fill="#2b5c8f" opacity="0.6"/>
  <rect x="360" y="132" width="8" height="8" fill="#2b5c8f" opacity="0.3"/>
  <rect x="312" y="148" width="8" height="8" fill="#2b5c8f" opacity="0.5"/>
  <rect x="328" y="148" width="8" height="8" fill="#2b5c8f" opacity="0.3"/>
  <rect x="344" y="148" width="8" height="8" fill="#2b5c8f" opacity="0.4"/>
  <rect x="328" y="164" width="8" height="8" fill="#4a8fd4" opacity="0.5"/>
  <rect x="360" y="164" width="8" height="8" fill="#2b5c8f" opacity="0.3"/>
  <rect x="312" y="180" width="8" height="8" fill="#2b5c8f" opacity="0.4"/>

  <!-- Building 6 -->
  <rect x="400" y="112" width="48" height="112" fill="#1a1a2e"/>
  <rect x="400" y="112" width="48" height="4" fill="#2b5c8f" opacity="0.4"/>
  <rect x="408" y="124" width="8" height="8" fill="#2b5c8f" opacity="0.5"/>
  <rect x="424" y="124" width="8" height="8" fill="#2b5c8f" opacity="0.3"/>
  <rect x="408" y="140" width="8" height="8" fill="#2b5c8f" opacity="0.4"/>
  <rect x="424" y="140" width="8" height="8" fill="#4a8fd4" opacity="0.5"/>
  <rect x="408" y="156" width="8" height="8" fill="#2b5c8f" opacity="0.6"/>
  <rect x="424" y="156" width="8" height="8" fill="#2b5c8f" opacity="0.3"/>
  <rect x="408" y="172" width="8" height="8" fill="#2b5c8f" opacity="0.4"/>
  <rect x="424" y="188" width="8" height="8" fill="#2b5c8f" opacity="0.5"/>

  <!-- Building 7 -->
  <rect x="464" y="144" width="40" height="80" fill="#1a1a2e"/>
  <rect x="464" y="144" width="40" height="4" fill="#2b5c8f" opacity="0.3"/>
  <rect x="472" y="156" width="8" height="8" fill="#2b5c8f" opacity="0.4"/>
  <rect x="488" y="156" width="8" height="8" fill="#2b5c8f" opacity="0.6"/>
  <rect x="472" y="172" width="8" height="8" fill="#4a8fd4" opacity="0.5"/>
  <rect x="488" y="188" width="8" height="8" fill="#2b5c8f" opacity="0.3"/>

  <!-- Building 8 -->
  <rect x="520" y="88" width="56" height="136" fill="#1a1a2e"/>
  <rect x="520" y="88" width="56" height="4" fill="#2b5c8f" opacity="0.5"/>
  <rect x="528" y="100" width="8" height="8" fill="#2b5c8f" opacity="0.6"/>
  <rect x="544" y="100" width="8" height="8" fill="#2b5c8f" opacity="0.3"/>
  <rect x="560" y="100" width="8" height="8" fill="#2b5c8f" opacity="0.4"/>
  <rect x="528" y="116" width="8" height="8" fill="#2b5c8f" opacity="0.5"/>
  <rect x="544" y="116" width="8" height="8" fill="#4a8fd4" opacity="0.4"/>
  <rect x="560" y="116" width="8" height="8" fill="#2b5c8f" opacity="0.6"/>
  <rect x="528" y="132" width="8" height="8" fill="#2b5c8f" opacity="0.3"/>
  <rect x="544" y="132" width="8" height="8" fill="#2b5c8f" opacity="0.5"/>
  <rect x="560" y="132" width="8" height="8" fill="#2b5c8f" opacity="0.4"/>
  <rect x="528" y="148" width="8" height="8" fill="#4a8fd4" opacity="0.5"/>
  <rect x="544" y="148" width="8" height="8" fill="#2b5c8f" opacity="0.3"/>
  <rect x="528" y="164" width="8" height="8" fill="#2b5c8f" opacity="0.4"/>
  <rect x="560" y="164" width="8" height="8" fill="#2b5c8f" opacity="0.6"/>
  <rect x="544" y="180" width="8" height="8" fill="#2b5c8f" opacity="0.5"/>
  <rect x="546" y="76" width="4" height="12" fill="#2b5c8f" opacity="0.5"/>
  <rect x="544" y="68" width="8" height="8" fill="#4a8fd4" opacity="0.3"/>

  <!-- ============ DATA FLOW LINES ============ -->
  <rect x="32" y="92" width="8" height="4" fill="#2b5c8f" opacity="0.5"/>
  <rect x="48" y="92" width="4" height="4" fill="#4a8fd4" opacity="0.6"/>
  <rect x="60" y="92" width="8" height="4" fill="#2b5c8f" opacity="0.4"/>
  <rect x="76" y="92" width="4" height="4" fill="#4a8fd4" opacity="0.5"/>
  <rect x="160" y="92" width="8" height="4" fill="#2b5c8f" opacity="0.3"/>
  <rect x="176" y="92" width="4" height="4" fill="#4a8fd4" opacity="0.6"/>
  <rect x="304" y="92" width="12" height="4" fill="#2b5c8f" opacity="0.4"/>
  <rect x="324" y="92" width="4" height="4" fill="#4a8fd4" opacity="0.5"/>
  <rect x="400" y="92" width="8" height="4" fill="#2b5c8f" opacity="0.3"/>
  <rect x="416" y="92" width="4" height="4" fill="#4a8fd4" opacity="0.6"/>
  <rect x="520" y="92" width="8" height="4" fill="#2b5c8f" opacity="0.4"/>

  <rect x="24" y="128" width="12" height="4" fill="#2b5c8f" opacity="0.4"/>
  <rect x="44" y="128" width="4" height="4" fill="#4a8fd4" opacity="0.5"/>
  <rect x="60" y="128" width="8" height="4" fill="#2b5c8f" opacity="0.3"/>
  <rect x="88" y="128" width="8" height="4" fill="#2b5c8f" opacity="0.5"/>
  <rect x="104" y="128" width="4" height="4" fill="#4a8fd4" opacity="0.6"/>
  <rect x="152" y="128" width="16" height="4" fill="#2b5c8f" opacity="0.4"/>
  <rect x="176" y="128" width="4" height="4" fill="#4a8fd4" opacity="0.5"/>
  <rect x="248" y="128" width="8" height="4" fill="#2b5c8f" opacity="0.3"/>
  <rect x="264" y="128" width="4" height="4" fill="#4a8fd4" opacity="0.6"/>
  <rect x="304" y="128" width="12" height="4" fill="#2b5c8f" opacity="0.4"/>
  <rect x="324" y="128" width="4" height="4" fill="#4a8fd4" opacity="0.5"/>
  <rect x="400" y="128" width="8" height="4" fill="#2b5c8f" opacity="0.3"/>
  <rect x="416" y="128" width="4" height="4" fill="#4a8fd4" opacity="0.6"/>
  <rect x="464" y="128" width="8" height="4" fill="#2b5c8f" opacity="0.5"/>
  <rect x="480" y="128" width="4" height="4" fill="#4a8fd4" opacity="0.4"/>

  <rect x="140" y="92" width="4" height="36" fill="#2b5c8f" opacity="0.3"/>
  <rect x="260" y="92" width="4" height="36" fill="#2b5c8f" opacity="0.3"/>
  <rect x="540" y="68" width="4" height="24" fill="#2b5c8f" opacity="0.3"/>

  <!-- ============ SERVER NODES ============ -->
  <rect x="124" y="40" width="40" height="32" fill="#1a1a2e"/>
  <rect x="124" y="40" width="40" height="4" fill="#2b5c8f" opacity="0.6"/>
  <rect x="132" y="48" width="8" height="4" fill="#2b5c8f" opacity="0.5"/>
  <rect x="144" y="48" width="8" height="4" fill="#4a8fd4" opacity="0.4"/>
  <rect x="132" y="56" width="8" height="4" fill="#4a8fd4" opacity="0.5"/>
  <rect x="144" y="56" width="8" height="4" fill="#2b5c8f" opacity="0.3"/>
  <rect x="140" y="72" width="4" height="20" fill="#2b5c8f" opacity="0.4"/>

  <rect x="280" y="32" width="48" height="36" fill="#1a1a2e"/>
  <rect x="280" y="32" width="48" height="4" fill="#2b5c8f" opacity="0.6"/>
  <rect x="288" y="40" width="8" height="4" fill="#2b5c8f" opacity="0.5"/>
  <rect x="300" y="40" width="8" height="4" fill="#4a8fd4" opacity="0.4"/>
  <rect x="312" y="40" width="8" height="4" fill="#2b5c8f" opacity="0.5"/>
  <rect x="288" y="48" width="8" height="4" fill="#4a8fd4" opacity="0.3"/>
  <rect x="300" y="48" width="8" height="4" fill="#2b5c8f" opacity="0.5"/>
  <rect x="312" y="48" width="8" height="4" fill="#4a8fd4" opacity="0.4"/>
  <rect x="288" y="56" width="8" height="4" fill="#2b5c8f" opacity="0.4"/>
  <rect x="300" y="56" width="8" height="4" fill="#4a8fd4" opacity="0.5"/>
  <rect x="312" y="56" width="8" height="4" fill="#2b5c8f" opacity="0.3"/>
  <rect x="304" y="68" width="4" height="24" fill="#2b5c8f" opacity="0.4"/>

  <rect x="500" y="36" width="40" height="28" fill="#1a1a2e"/>
  <rect x="500" y="36" width="40" height="4" fill="#2b5c8f" opacity="0.5"/>
  <rect x="508" y="44" width="8" height="4" fill="#4a8fd4" opacity="0.5"/>
  <rect x="520" y="44" width="8" height="4" fill="#2b5c8f" opacity="0.4"/>
  <rect x="508" y="52" width="8" height="4" fill="#2b5c8f" opacity="0.3"/>
  <rect x="520" y="52" width="8" height="4" fill="#4a8fd4" opacity="0.5"/>

  <!-- ============ GLOWING DATA DOTS ============ -->
  <rect x="48" y="91" width="4" height="6" fill="#4a8fd4" opacity="0.7"/>
  <rect x="176" y="91" width="4" height="6" fill="#4a8fd4" opacity="0.7"/>
  <rect x="324" y="91" width="4" height="6" fill="#4a8fd4" opacity="0.7"/>
  <rect x="416" y="91" width="4" height="6" fill="#4a8fd4" opacity="0.7"/>
  <rect x="44" y="127" width="4" height="6" fill="#4a8fd4" opacity="0.7"/>
  <rect x="104" y="127" width="4" height="6" fill="#4a8fd4" opacity="0.7"/>
  <rect x="176" y="127" width="4" height="6" fill="#4a8fd4" opacity="0.7"/>
  <rect x="264" y="127" width="4" height="6" fill="#4a8fd4" opacity="0.7"/>
  <rect x="324" y="127" width="4" height="6" fill="#4a8fd4" opacity="0.7"/>
  <rect x="416" y="127" width="4" height="6" fill="#4a8fd4" opacity="0.7"/>
  <rect x="480" y="127" width="4" height="6" fill="#4a8fd4" opacity="0.7"/>

  <!-- ============ MOON ============ -->
  <rect x="580" y="20" width="12" height="12" fill="#2b5c8f" opacity="0.3"/>
  <rect x="592" y="20" width="8" height="12" fill="#2b5c8f" opacity="0.2"/>
  <rect x="580" y="32" width="8" height="8" fill="#2b5c8f" opacity="0.2"/>
  <rect x="580" y="20" width="4" height="4" fill="#4a8fd4" opacity="0.5"/>
  <rect x="588" y="28" width="4" height="4" fill="#4a8fd4" opacity="0.3"/>
</svg>
