<svg xmlns="http://www.w3.org/2000/svg" viewBox="0 0 240 64" width="240" height="64">
  <!-- Pixel border background -->
  <rect x="2" y="2" width="236" height="60" fill="#1a1a2e" rx="0" ry="0"/>
  
  <!-- Pixel border - top -->
  <rect x="0" y="0" width="240" height="2" fill="#2b5c8f"/>
  <rect x="0" y="0" width="2" height="64" fill="#2b5c8f"/>
  <!-- Pixel border - bottom -->
  <rect x="0" y="62" width="240" height="2" fill="#3a3a5c"/>
  <rect x="238" y="0" width="2" height="64" fill="#3a3a5c"/>
  
  <!-- Pixel decorative corners -->
  <rect x="2" y="2" width="4" height="4" fill="#2b5c8f" opacity="0.6"/>
  <rect x="6" y="2" width="4" height="4" fill="#2b5c8f" opacity="0.3"/>
  <rect x="230" y="2" width="8" height="4" fill="#2b5c8f" opacity="0.6"/>
  <rect x="2" y="58" width="4" height="4" fill="#3a3a5c" opacity="0.4"/>
  <rect x="230" y="58" width="8" height="4" fill="#3a3a5c" opacity="0.4"/>

  <!-- Pixel blocks forming CHANCETOP -->
  <rect x="12" y="16" width="4" height="24" fill="#2b5c8f"/>
  <rect x="12" y="16" width="16" height="4" fill="#2b5c8f"/>
  <rect x="12" y="40" width="16" height="4" fill="#2b5c8f"/>

  <rect x="32" y="16" width="4" height="28" fill="#2b5c8f"/>
  <rect x="32" y="28" width="16" height="4" fill="#2b5c8f"/>
  <rect x="44" y="16" width="4" height="28" fill="#2b5c8f"/>

  <rect x="52" y="16" width="4" height="28" fill="#2b5c8f"/>
  <rect x="52" y="16" width="16" height="4" fill="#2b5c8f"/>
  <rect x="64" y="16" width="4" height="28" fill="#2b5c8f"/>
  <rect x="52" y="28" width="16" height="4" fill="#2b5c8f"/>

  <rect x="72" y="16" width="4" height="28" fill="#2b5c8f"/>
  <rect x="72" y="16" width="12" height="4" fill="#2b5c8f" opacity="0.6"/>
  <rect x="80" y="24" width="4" height="4" fill="#2b5c8f" opacity="0.6"/>
  <rect x="84" y="16" width="4" height="28" fill="#2b5c8f"/>

  <rect x="92" y="16" width="4" height="28" fill="#2b5c8f"/>
  <rect x="92" y="40" width="16" height="4" fill="#2b5c8f"/>
  <rect x="92" y="16" width="16" height="4" fill="#2b5c8f"/>

  <rect x="112" y="16" width="4" height="28" fill="#2b5c8f"/>
  <rect x="112" y="16" width="16" height="4" fill="#2b5c8f"/>
  <rect x="112" y="28" width="12" height="4" fill="#2b5c8f"/>
  <rect x="112" y="40" width="16" height="4" fill="#2b5c8f"/>

  <rect x="132" y="16" width="20" height="4" fill="#2b5c8f"/>
  <rect x="140" y="16" width="4" height="28" fill="#2b5c8f"/>

  <rect x="156" y="16" width="16" height="4" fill="#2b5c8f"/>
  <rect x="156" y="40" width="16" height="4" fill="#2b5c8f"/>
  <rect x="156" y="16" width="4" height="28" fill="#2b5c8f"/>
  <rect x="168" y="16" width="4" height="28" fill="#2b5c8f"/>

  <rect x="176" y="16" width="4" height="28" fill="#2b5c8f"/>
  <rect x="176" y="16" width="16" height="4" fill="#2b5c8f"/>
  <rect x="176" y="28" width="16" height="4" fill="#2b5c8f"/>
  <rect x="188" y="20" width="4" height="12" fill="#2b5c8f"/>

  <!-- Subtitle dots -->
  <rect x="90" y="50" width="4" height="4" fill="#4a8fd4" opacity="0.5"/>
  <rect x="98" y="50" width="4" height="4" fill="#4a8fd4" opacity="0.5"/>
  <rect x="106" y="50" width="4" height="4" fill="#4a8fd4" opacity="0.5"/>
  <rect x="114" y="50" width="4" height="4" fill="#4a8fd4" opacity="0.5"/>
  <rect x="122" y="50" width="4" height="4" fill="#4a8fd4" opacity="0.5"/>
  <rect x="130" y="50" width="4" height="4" fill="#4a8fd4" opacity="0.5"/>
  <rect x="138" y="50" width="4" height="4" fill="#4a8fd4" opacity="0.5"/>
</svg>
